<?xml version="1.0" encoding="UTF-8"?>
<svg width="21px" height="17px" viewBox="0 0 21 17" version="1.1" xmlns="http://www.w3.org/2000/svg" xmlns:xlink="http://www.w3.org/1999/xlink">
    <!-- Generator: sketchtool 57.1 (101010) - https://sketch.com -->
    <title>CBF18A3E-3FAF-4CE0-95B9-8714B7690313</title>
    <desc>Created with sketchtool.</desc>
    <g id="Page-1" stroke="none" stroke-width="1" fill="none" fill-rule="evenodd">
        <g id="6_About" transform="translate(-30.000000, -99.000000)">
            <g id="side_menu">
                <g id="home" transform="translate(23.000000, 96.000000)">
                    <g id="icon/home" transform="translate(5.500000, 0.000000)">
                        <polygon id="Path" points="0 0 24 0 24 24 0 24"></polygon>
                        <path d="M12,5.69 L17,10.19 L17,18 L15,18 L15,12 L9,12 L9,18 L7,18 L7,10.19 L12,5.69 L12,5.69 Z M12,3 L2,12 L5,12 L5,20 L11,20 L11,14 L13,14 L13,20 L19,20 L19,12 L22,12 L12,3 Z" id="Shape" fill="#CCD4DC" fill-rule="nonzero"></path>
                    </g>
                </g>
            </g>
        </g>
    </g>
</svg>